<svg fill="none" height="48" viewBox="0 0 37 48" width="37" xmlns="http://www.w3.org/2000/svg"><path d="m2 8.28551v11.99369c0 .3572.19058.6874.49995.866l10.38805 5.9983m-10.888-18.85799 10.8891 6.28549m-10.8891-6.28549 10.3838-5.9968c.3094-.17866.6905-.17872 1-.00017l10.3922 5.99697m-10.888 18.85799 10.888-6.287m-10.888 6.287.0011-12.5725m-.0011 12.5725v11.9936c0 .3573.1906.6874.5001.8661l10.389 5.9968m-10.8891-18.8565 10.8891 6.2855m-10.888-18.858 10.8869-6.28549m0 0v12.57099m0 0 10.8879 6.287m-10.8868 6.2855 10.8868-6.2855m-10.8868 6.2855v12.571m10.8868-18.8565v11.9936c0 .3573-.1906.6874-.5.8661l-10.3868 5.9968" stroke="#fff" stroke-linejoin="round" stroke-width="4"/></svg>